<svg width="720" height="900" viewBox="0 0 720 900" fill="none" xmlns="http://www.w3.org/2000/svg">
  <rect width="720" height="900" rx="48" fill="#0B0B10"/>
  <rect x="20" y="20" width="680" height="860" rx="36" fill="url(#bg)"/>
  <circle cx="360" cy="298" r="132" fill="url(#halo)" opacity="0.9"/>
  <path d="M262 396C281 351 315 326 360 326C405 326 439 351 458 396C478 443 492 491 492 564V686H228V564C228 491 242 443 262 396Z" fill="#151823"/>
  <path d="M296 304C296 262.026 330.026 228 372 228H348C389.974 228 424 262.026 424 304V336C424 378.974 389.974 414 348 414H372C330.026 414 296 379.974 296 338V304Z" fill="#2C3140"/>
  <path d="M228 686C255 612 303 575 360 575C417 575 465 612 492 686V762H228V686Z" fill="#20263A"/>
  <rect x="86" y="742" width="548" height="90" rx="24" fill="#0F1118" fill-opacity="0.9"/>
  <text x="360" y="785" fill="#F3F1F5" font-family="Segoe UI, Arial, sans-serif" font-size="26" text-anchor="middle">Professional Headshot Slot</text>
  <text x="360" y="820" fill="#FF9A84" font-family="Segoe UI, Arial, sans-serif" font-size="18" text-anchor="middle">Replace with your portrait in /public/imagery</text>
  <defs>
    <linearGradient id="bg" x1="60" y1="60" x2="620" y2="840" gradientUnits="userSpaceOnUse">
      <stop stop-color="#12131B"/>
      <stop offset="0.55" stop-color="#0E1018"/>
      <stop offset="1" stop-color="#17111A"/>
    </linearGradient>
    <radialGradient id="halo" cx="0" cy="0" r="1" gradientUnits="userSpaceOnUse" gradientTransform="translate(360 298) rotate(90) scale(180 180)">
      <stop stop-color="#FF4D5A" stop-opacity="0.4"/>
      <stop offset="1" stop-color="#FF4D5A" stop-opacity="0"/>
    </radialGradient>
  </defs>
</svg>
